<svg xmlns="http://www.w3.org/2000/svg" xmlns:xlink="http://www.w3.org/1999/xlink" width="1600" zoomAndPan="magnify" viewBox="0 0 1200 173.999997" height="232" preserveAspectRatio="xMidYMid meet" version="1.0"><defs><g/></defs><path fill="#25c4f2" d="M 2.617188 3.457031 C 2.941406 2.9375 3.324219 2.46875 3.769531 2.046875 C 4.210938 1.625 4.703125 1.265625 5.238281 0.96875 C 5.773438 0.675781 6.335938 0.449219 6.929688 0.296875 C 7.519531 0.144531 8.121094 0.0703125 8.734375 0.0703125 L 84.667969 0.0703125 C 85.347656 0.0742188 86.011719 0.167969 86.664062 0.359375 C 87.316406 0.546875 87.925781 0.824219 88.5 1.1875 C 89.074219 1.550781 89.585938 1.988281 90.035156 2.496094 C 90.484375 3.003906 90.855469 3.5625 91.148438 4.175781 L 122.671875 69.851562 L 154.121094 4.105469 C 154.414062 3.492188 154.785156 2.929688 155.234375 2.421875 C 155.6875 1.914062 156.199219 1.476562 156.773438 1.113281 C 157.347656 0.75 157.960938 0.476562 158.613281 0.285156 C 159.261719 0.0976562 159.929688 0 160.609375 0 L 236.535156 0 C 236.835938 0 237.136719 0.0195312 237.4375 0.0585938 C 237.738281 0.0976562 238.035156 0.15625 238.328125 0.230469 C 238.621094 0.308594 238.90625 0.402344 239.1875 0.511719 C 239.46875 0.625 239.738281 0.753906 240.003906 0.902344 C 240.269531 1.046875 240.523438 1.210938 240.765625 1.386719 C 241.011719 1.566406 241.242188 1.757812 241.460938 1.96875 C 241.683594 2.175781 241.886719 2.394531 242.078125 2.628906 C 242.273438 2.863281 242.449219 3.109375 242.609375 3.363281 C 242.769531 3.621094 242.914062 3.882812 243.042969 4.160156 C 243.171875 4.433594 243.28125 4.714844 243.371094 5 C 243.464844 5.289062 243.539062 5.582031 243.59375 5.878906 C 243.648438 6.175781 243.6875 6.476562 243.703125 6.777344 C 243.722656 7.078125 243.71875 7.382812 243.699219 7.683594 C 243.679688 7.984375 243.640625 8.285156 243.582031 8.582031 C 243.523438 8.878906 243.449219 9.171875 243.355469 9.457031 C 243.257812 9.746094 243.148438 10.023438 243.015625 10.296875 L 167.082031 168.796875 C 166.789062 169.410156 166.417969 169.96875 165.96875 170.476562 C 165.519531 170.984375 165.007812 171.421875 164.433594 171.785156 C 163.863281 172.144531 163.25 172.421875 162.597656 172.613281 C 161.949219 172.804688 161.28125 172.898438 160.605469 172.902344 L 84.667969 172.902344 C 83.992188 172.898438 83.324219 172.804688 82.671875 172.613281 C 82.023438 172.425781 81.410156 172.148438 80.835938 171.785156 C 80.261719 171.421875 79.75 170.984375 79.300781 170.476562 C 78.851562 169.96875 78.480469 169.410156 78.1875 168.796875 L 2.261719 10.367188 C 1.996094 9.824219 1.804688 9.253906 1.6875 8.664062 C 1.566406 8.070312 1.523438 7.472656 1.554688 6.867188 C 1.585938 6.261719 1.691406 5.671875 1.871094 5.09375 C 2.050781 4.515625 2.296875 3.972656 2.617188 3.457031 Z M 160.601562 23.839844 L 187.230469 79.285156 L 133.96875 79.285156 L 160.449219 23.839844 Z M 20.25 14.472656 L 46.738281 69.925781 L 73.371094 14.472656 L 20.105469 14.472656 L 20.257812 14.472656 Z M 84.667969 23.839844 L 111.296875 79.285156 L 58.109375 79.285156 L 84.59375 23.839844 Z M 172.117188 14.472656 L 198.601562 69.925781 L 225.234375 14.472656 L 171.972656 14.472656 Z M 160.601562 149.136719 L 134.113281 93.6875 L 187.15625 93.6875 L 160.527344 149.136719 Z M 149.230469 158.5 L 122.597656 103.054688 L 96.113281 158.5 Z M 84.742188 149.136719 L 58.109375 93.6875 L 111.230469 93.6875 L 84.59375 149.136719 Z M 84.742188 149.136719 " fill-opacity="1" fill-rule="evenodd"/><g fill="#ffffff" fill-opacity="1"><g transform="translate(280.456986, 136.042977)"><g><path d="M 78.015625 0 L 9.25 0 L 9.25 -92.984375 L 31.78125 -92.984375 L 31.78125 -17.453125 L 78.015625 -17.453125 Z M 78.015625 0 "/></g></g></g><g fill="#ffffff" fill-opacity="1"><g transform="translate(364.325455, 136.042977)"><g><path d="M 70.203125 0 L 49.484375 0 C 49.222656 -2.34375 49.050781 -4.226562 48.96875 -5.65625 C 48.882812 -7.09375 48.84375 -8.460938 48.84375 -9.765625 C 47.1875 -6.117188 44.515625 -3.316406 40.828125 -1.359375 C 37.140625 0.585938 32.691406 1.5625 27.484375 1.5625 C 20.359375 1.5625 14.710938 -0.210938 10.546875 -3.765625 C 6.378906 -7.328125 4.296875 -12.109375 4.296875 -18.109375 C 4.296875 -24.097656 6.335938 -28.785156 10.421875 -32.171875 C 14.503906 -35.554688 20.710938 -37.679688 29.046875 -38.546875 L 47.796875 -40.375 L 47.796875 -43.109375 C 47.796875 -46.148438 46.925781 -48.515625 45.1875 -50.203125 C 43.457031 -51.898438 40.984375 -52.75 37.765625 -52.75 C 34.898438 -52.75 32.597656 -51.988281 30.859375 -50.46875 C 29.128906 -48.945312 28.175781 -46.882812 28 -44.28125 L 7.15625 -44.28125 C 7.851562 -51.832031 10.976562 -57.710938 16.53125 -61.921875 C 22.09375 -66.140625 29.429688 -68.25 38.546875 -68.25 C 48.617188 -68.25 56.21875 -65.925781 61.34375 -61.28125 C 66.46875 -56.632812 69.03125 -49.753906 69.03125 -40.640625 L 69.03125 -19.015625 C 69.03125 -15.023438 69.113281 -11.570312 69.28125 -8.65625 C 69.457031 -5.75 69.765625 -2.863281 70.203125 0 Z M 25.78125 -19.53125 C 25.78125 -17.28125 26.519531 -15.523438 28 -14.265625 C 29.476562 -13.003906 31.519531 -12.375 34.125 -12.375 C 38.113281 -12.375 41.390625 -13.546875 43.953125 -15.890625 C 46.515625 -18.234375 47.796875 -21.359375 47.796875 -25.265625 L 47.796875 -28.515625 L 35.8125 -27.09375 C 32.164062 -26.65625 29.582031 -25.847656 28.0625 -24.671875 C 26.539062 -23.503906 25.78125 -21.789062 25.78125 -19.53125 Z M 25.78125 -19.53125 "/></g></g></g><g fill="#ffffff" fill-opacity="1"><g transform="translate(441.552161, 136.042977)"><g><path d="M 50.40625 -67.71875 C 51.53125 -67.71875 52.484375 -67.675781 53.265625 -67.59375 C 54.046875 -67.507812 54.695312 -67.335938 55.21875 -67.078125 L 55.21875 -47.015625 C 54.175781 -47.191406 53.085938 -47.320312 51.953125 -47.40625 C 50.828125 -47.488281 49.570312 -47.53125 48.1875 -47.53125 C 42.800781 -47.53125 38.546875 -45.921875 35.421875 -42.703125 C 32.296875 -39.492188 30.734375 -34.984375 30.734375 -29.171875 L 30.734375 0 L 8.984375 0 L 8.984375 -66.6875 L 30.46875 -66.6875 L 30.46875 -52.484375 C 32.125 -57.429688 34.6875 -61.207031 38.15625 -63.8125 C 41.632812 -66.414062 45.71875 -67.71875 50.40625 -67.71875 Z M 50.40625 -67.71875 "/></g></g></g><g fill="#ffffff" fill-opacity="1"><g transform="translate(499.765208, 136.042977)"><g><path d="M 70.203125 0 L 49.484375 0 C 49.222656 -2.34375 49.050781 -4.226562 48.96875 -5.65625 C 48.882812 -7.09375 48.84375 -8.460938 48.84375 -9.765625 C 47.1875 -6.117188 44.515625 -3.316406 40.828125 -1.359375 C 37.140625 0.585938 32.691406 1.5625 27.484375 1.5625 C 20.359375 1.5625 14.710938 -0.210938 10.546875 -3.765625 C 6.378906 -7.328125 4.296875 -12.109375 4.296875 -18.109375 C 4.296875 -24.097656 6.335938 -28.785156 10.421875 -32.171875 C 14.503906 -35.554688 20.710938 -37.679688 29.046875 -38.546875 L 47.796875 -40.375 L 47.796875 -43.109375 C 47.796875 -46.148438 46.925781 -48.515625 45.1875 -50.203125 C 43.457031 -51.898438 40.984375 -52.75 37.765625 -52.75 C 34.898438 -52.75 32.597656 -51.988281 30.859375 -50.46875 C 29.128906 -48.945312 28.175781 -46.882812 28 -44.28125 L 7.15625 -44.28125 C 7.851562 -51.832031 10.976562 -57.710938 16.53125 -61.921875 C 22.09375 -66.140625 29.429688 -68.25 38.546875 -68.25 C 48.617188 -68.25 56.21875 -65.925781 61.34375 -61.28125 C 66.46875 -56.632812 69.03125 -49.753906 69.03125 -40.640625 L 69.03125 -19.015625 C 69.03125 -15.023438 69.113281 -11.570312 69.28125 -8.65625 C 69.457031 -5.75 69.765625 -2.863281 70.203125 0 Z M 25.78125 -19.53125 C 25.78125 -17.28125 26.519531 -15.523438 28 -14.265625 C 29.476562 -13.003906 31.519531 -12.375 34.125 -12.375 C 38.113281 -12.375 41.390625 -13.546875 43.953125 -15.890625 C 46.515625 -18.234375 47.796875 -21.359375 47.796875 -25.265625 L 47.796875 -28.515625 L 35.8125 -27.09375 C 32.164062 -26.65625 29.582031 -25.847656 28.0625 -24.671875 C 26.539062 -23.503906 25.78125 -21.789062 25.78125 -19.53125 Z M 25.78125 -19.53125 "/></g></g></g><g fill="#ffffff" fill-opacity="1"><g transform="translate(576.991926, 136.042977)"><g><path d="M 51.3125 0 L 27.609375 0 L 1.6875 -66.6875 L 23.578125 -66.6875 L 39.59375 -21.09375 L 39.859375 -21.09375 L 55.609375 -66.6875 L 76.96875 -66.6875 Z M 51.3125 0 "/></g></g></g><g fill="#ffffff" fill-opacity="1"><g transform="translate(655.520936, 136.042977)"><g><path d="M 51.96875 -21.75 L 72.015625 -21.75 C 70.546875 -14.539062 66.96875 -8.851562 61.28125 -4.6875 C 55.59375 -0.519531 48.453125 1.5625 39.859375 1.5625 C 29.429688 1.5625 20.941406 -1.625 14.390625 -8 C 7.835938 -14.382812 4.5625 -22.832031 4.5625 -33.34375 C 4.5625 -43.84375 7.816406 -52.285156 14.328125 -58.671875 C 20.835938 -65.054688 29.257812 -68.25 39.59375 -68.25 C 49.570312 -68.25 57.515625 -65.117188 63.421875 -58.859375 C 69.328125 -52.609375 72.28125 -44.445312 72.28125 -34.375 L 72.28125 -28.515625 L 25.53125 -28.515625 C 26.132812 -23.660156 27.648438 -19.992188 30.078125 -17.515625 C 32.515625 -15.046875 35.773438 -13.8125 39.859375 -13.8125 C 42.890625 -13.8125 45.445312 -14.484375 47.53125 -15.828125 C 49.613281 -17.171875 51.09375 -19.144531 51.96875 -21.75 Z M 39.59375 -53 C 35.945312 -53 32.953125 -51.914062 30.609375 -49.75 C 28.265625 -47.582031 26.703125 -44.367188 25.921875 -40.109375 L 52.09375 -40.109375 C 52.09375 -43.929688 50.960938 -47.035156 48.703125 -49.421875 C 46.453125 -51.804688 43.414062 -53 39.59375 -53 Z M 39.59375 -53 "/></g></g></g><g fill="#ffffff" fill-opacity="1"><g transform="translate(732.487187, 136.042977)"><g><path d="M 30.734375 -95.859375 L 30.734375 0 L 8.984375 0 L 8.984375 -95.859375 Z M 30.734375 -95.859375 "/></g></g></g><g fill="#ffffff" fill-opacity="1"><g transform="translate(772.207476, 136.042977)"><g/></g></g><g fill="#ffffff" fill-opacity="1"><g transform="translate(798.894458, 136.042977)"><g><path d="M 61.859375 0 L 36.859375 0 L 0.90625 -92.984375 L 24.875 -92.984375 L 49.75 -24.609375 L 50.015625 -24.609375 L 74.75 -92.984375 L 97.9375 -92.984375 Z M 61.859375 0 "/></g></g></g><g fill="#ffffff" fill-opacity="1"><g transform="translate(897.739442, 136.042977)"><g><path d="M 70.203125 0 L 49.484375 0 C 49.222656 -2.34375 49.050781 -4.226562 48.96875 -5.65625 C 48.882812 -7.09375 48.84375 -8.460938 48.84375 -9.765625 C 47.1875 -6.117188 44.515625 -3.316406 40.828125 -1.359375 C 37.140625 0.585938 32.691406 1.5625 27.484375 1.5625 C 20.359375 1.5625 14.710938 -0.210938 10.546875 -3.765625 C 6.378906 -7.328125 4.296875 -12.109375 4.296875 -18.109375 C 4.296875 -24.097656 6.335938 -28.785156 10.421875 -32.171875 C 14.503906 -35.554688 20.710938 -37.679688 29.046875 -38.546875 L 47.796875 -40.375 L 47.796875 -43.109375 C 47.796875 -46.148438 46.925781 -48.515625 45.1875 -50.203125 C 43.457031 -51.898438 40.984375 -52.75 37.765625 -52.75 C 34.898438 -52.75 32.597656 -51.988281 30.859375 -50.46875 C 29.128906 -48.945312 28.175781 -46.882812 28 -44.28125 L 7.15625 -44.28125 C 7.851562 -51.832031 10.976562 -57.710938 16.53125 -61.921875 C 22.09375 -66.140625 29.429688 -68.25 38.546875 -68.25 C 48.617188 -68.25 56.21875 -65.925781 61.34375 -61.28125 C 66.46875 -56.632812 69.03125 -49.753906 69.03125 -40.640625 L 69.03125 -19.015625 C 69.03125 -15.023438 69.113281 -11.570312 69.28125 -8.65625 C 69.457031 -5.75 69.765625 -2.863281 70.203125 0 Z M 25.78125 -19.53125 C 25.78125 -17.28125 26.519531 -15.523438 28 -14.265625 C 29.476562 -13.003906 31.519531 -12.375 34.125 -12.375 C 38.113281 -12.375 41.390625 -13.546875 43.953125 -15.890625 C 46.515625 -18.234375 47.796875 -21.359375 47.796875 -25.265625 L 47.796875 -28.515625 L 35.8125 -27.09375 C 32.164062 -26.65625 29.582031 -25.847656 28.0625 -24.671875 C 26.539062 -23.503906 25.78125 -21.789062 25.78125 -19.53125 Z M 25.78125 -19.53125 "/></g></g></g><g fill="#ffffff" fill-opacity="1"><g transform="translate(974.966149, 136.042977)"><g><path d="M 50.921875 1.5625 C 46.492188 1.5625 42.457031 0.519531 38.8125 -1.5625 C 35.164062 -3.644531 32.472656 -6.421875 30.734375 -9.890625 L 30.734375 23.1875 L 8.984375 23.1875 L 8.984375 -66.6875 L 30.46875 -66.6875 L 30.46875 -56.65625 C 32.207031 -60.125 34.921875 -62.921875 38.609375 -65.046875 C 42.304688 -67.179688 46.410156 -68.25 50.921875 -68.25 C 59.691406 -68.25 66.742188 -65.035156 72.078125 -58.609375 C 77.421875 -52.179688 80.09375 -43.757812 80.09375 -33.34375 C 80.09375 -22.925781 77.421875 -14.503906 72.078125 -8.078125 C 66.742188 -1.648438 59.691406 1.5625 50.921875 1.5625 Z M 44.15625 -52.75 C 39.8125 -52.75 36.421875 -51.160156 33.984375 -47.984375 C 31.554688 -44.816406 30.34375 -40.410156 30.34375 -34.765625 L 30.34375 -31.90625 C 30.34375 -26.351562 31.554688 -21.988281 33.984375 -18.8125 C 36.421875 -15.644531 39.8125 -14.0625 44.15625 -14.0625 C 48.664062 -14.0625 52.132812 -15.734375 54.5625 -19.078125 C 57 -22.421875 58.21875 -27.175781 58.21875 -33.34375 C 58.21875 -39.507812 56.976562 -44.285156 54.5 -47.671875 C 52.03125 -51.054688 48.582031 -52.75 44.15625 -52.75 Z M 44.15625 -52.75 "/></g></g></g><g fill="#ffffff" fill-opacity="1"><g transform="translate(1059.615985, 136.042977)"><g><path d="M 40.109375 -68.25 C 50.785156 -68.25 59.359375 -65.078125 65.828125 -58.734375 C 72.296875 -52.398438 75.53125 -43.9375 75.53125 -33.34375 C 75.53125 -22.75 72.296875 -14.28125 65.828125 -7.9375 C 59.359375 -1.601562 50.785156 1.5625 40.109375 1.5625 C 29.347656 1.5625 20.734375 -1.601562 14.265625 -7.9375 C 7.796875 -14.28125 4.5625 -22.75 4.5625 -33.34375 C 4.5625 -43.9375 7.796875 -52.398438 14.265625 -58.734375 C 20.734375 -65.078125 29.347656 -68.25 40.109375 -68.25 Z M 40.109375 -52.609375 C 35.679688 -52.609375 32.296875 -50.9375 29.953125 -47.59375 C 27.609375 -44.257812 26.4375 -39.507812 26.4375 -33.34375 C 26.4375 -27.175781 27.609375 -22.421875 29.953125 -19.078125 C 32.296875 -15.734375 35.679688 -14.0625 40.109375 -14.0625 C 44.453125 -14.0625 47.796875 -15.710938 50.140625 -19.015625 C 52.484375 -22.316406 53.65625 -27.09375 53.65625 -33.34375 C 53.65625 -39.59375 52.484375 -44.363281 50.140625 -47.65625 C 47.796875 -50.957031 44.453125 -52.609375 40.109375 -52.609375 Z M 40.109375 -52.609375 "/></g></g></g><g fill="#ffffff" fill-opacity="1"><g transform="translate(1139.838011, 136.042977)"><g><path d="M 50.40625 -67.71875 C 51.53125 -67.71875 52.484375 -67.675781 53.265625 -67.59375 C 54.046875 -67.507812 54.695312 -67.335938 55.21875 -67.078125 L 55.21875 -47.015625 C 54.175781 -47.191406 53.085938 -47.320312 51.953125 -47.40625 C 50.828125 -47.488281 49.570312 -47.53125 48.1875 -47.53125 C 42.800781 -47.53125 38.546875 -45.921875 35.421875 -42.703125 C 32.296875 -39.492188 30.734375 -34.984375 30.734375 -29.171875 L 30.734375 0 L 8.984375 0 L 8.984375 -66.6875 L 30.46875 -66.6875 L 30.46875 -52.484375 C 32.125 -57.429688 34.6875 -61.207031 38.15625 -63.8125 C 41.632812 -66.414062 45.71875 -67.71875 50.40625 -67.71875 Z M 50.40625 -67.71875 "/></g></g></g></svg>